<svg version="1.0" xmlns="http://www.w3.org/2000/svg" viewBox="0 0 582.1 176.4">
<g>
	<g>
		<path fill="#7BFF00" d="M345.2,0v124.6h-12V2.8L345.2,0z"/>
		<path fill="#7BFF00" d="M316.3,34.1c0,41.7,0,142,0,142h-12c0,0,0-98,0-139.1L316.3,34.1z"/>
		<g>
			<path fill="#FFFFFF" d="M427.5,90.7c0,19.1-15.8,33.8-34.7,33.8c-18.8,0-34.5-14.7-34.5-33.8c0-19.1,15.7-33.8,34.5-33.8
				C411.6,57,427.5,71.6,427.5,90.7z M392.8,68.3c-12.6,0-22.5,10.2-22.5,22.5c0,12.3,9.9,22.5,22.5,22.5
				c12.7,0,22.6-10.2,22.6-22.5C415.4,78.4,405.5,68.3,392.8,68.3z"/>
		</g>
		<path fill="#7BFF00" d="M287.3,140.9v35.2h-12v-32.3L287.3,140.9z"/>
		<g>
			<path fill="#FFFFFF" d="M48.6,74.3c-5.4-4-8.9-5.9-16.1-5.9c-12.2,0-20.5,10.9-20.5,22.6c0,11.4,9.7,22.3,20.7,22.3
				c6.8,0,11.3-3.3,15.7-7.5l7.8,7.9c-6.4,6.7-14.4,10.9-23.9,10.9C15.6,124.6,0,110.1,0,91.3s13.3-34.3,32.4-34.3
				c8.8,0,16.8,3.1,23.5,8.9L48.6,74.3z"/>
		</g>
		<g>
			<path fill="#FFFFFF" d="M223.6,70.2h-16.9v33.6c0,8,2.5,10.5,11.3,10.5c2.8,0,5.4-0.5,8-0.8l-2.1,10.9c-2.4,0.3-4.5,0.5-9.7,0.5
				c-11.2,0-19.6-8-19.6-19.5V70.2h-9.9l4.3-10.7h5.6V44l12.1-2.9v18.5h16.9V70.2z"/>
		</g>
		<g>
			<path fill="#FFFFFF" d="M142.9,107.2c3.6,4.3,7.3,7,13.3,7c4.8,0,10.7-2.4,10.7-8c0-16.4-31.3-5-31.3-28.7c0-11.8,9-20.1,20.6-20.1
				c8.9,0,14.2,2.6,20.6,8.9l-7.2,7.9c-3.8-3.9-6.7-6.2-12.2-6.2c-5.1,0-9.8,1.8-9.8,7.8c0,14.3,31.3,3.6,31.3,28.9
				c0,12.3-10.3,20.2-22,20.2c-9.4,0-16.6-3.1-22.3-10.7L142.9,107.2z"/>
		</g>
		<g>
			<path fill="#FFFFFF" d="M128.8,91.3c0,19.1-15.8,33.8-34.7,33.8c-18.8,0-34.5-14.7-34.5-33.8c0-19.1,15.7-33.8,34.5-33.8
				C112.9,57.6,128.8,72.3,128.8,91.3z M94.1,68.9c-12.6,0-22.5,10.2-22.5,22.5c0,12.3,9.9,22.5,22.5,22.5
				c12.7,0,22.6-10.2,22.6-22.5C116.7,79,106.8,68.9,94.1,68.9z"/>
		</g>
		<g>
			<path fill="#FFFFFF" d="M245.9,103c4,6.4,9.9,10.3,17.5,10.3c8.7,0,17.1-5.9,23.6-11l2.4,12.7c-7.9,5.5-15.3,9.7-25.2,9.7
				c-20.5,0-33.8-15.3-33.8-35.5c0-17.3,14.8-32,31.8-32c13.6,0,21.6,6.2,28.5,17.5L245.9,103z M274,72.5c-2.8-3.1-6.8-4.1-11-4.1
				c-13.7,0-22.1,11-20.6,24.2L274,72.5z"/>
		</g>
		<g>
			<path fill="#8E8E93" d="M333.7,176.1v-34.4l3.9-0.8v5.8h0.1c1.6-3.4,5.9-5.8,9-5.8c5.4,0,7.4,1.8,9.9,5.6c2.3-3.4,5.9-5.6,9.7-5.6
				c6.2,0,11.3,3,11.3,10v24.7l-3.9,0.5v-24.4c0-4.3-3-7.3-7.2-7.3c-6.1,0-9,4.1-9,10.2v21l-3.9,0.5v-24.4c0-4.3-3-7.3-7.2-7.3
				c-6.1,0-9,4.1-9,10.2v21L333.7,176.1z"/>
			<path fill="#8E8E93" d="M390.9,164.6c1.4,3.1,5.7,7.9,12,7.9c4.9,0,9.2-2.6,12.8-5.6v4.7c-3,3-8.4,4.8-12.6,4.8
				c-10.5,0-17.5-7.9-17.5-18.2c0-10.3,7.6-17.3,17.7-17.3c6.2,0,11.3,4,13.4,7.9L390.9,164.6z M410.6,147.7c-1.6-1.7-4.1-3-7.2-3
				c-8,0-13.8,5.9-13.8,13.5c0,0.9,0.1,1.9,0.3,2.8L410.6,147.7z"/>
			<path fill="#8E8E93" d="M453.3,127.5l3.9-0.8v48.9l-3.9,0.8v-6.5h-0.1c-2.6,3.4-7.8,6.5-13.3,6.5c-9.9,0-17.7-7.2-17.7-17.9
				c0-9.9,7.8-17.6,17.5-17.6c5.5,0,10.1,2.9,13.4,6.7h0.1V127.5z M439.6,144.8c-8,0-13.4,7-13.4,13.7c0,7.9,5.4,14,13.6,14
				c7.6,0,13.6-6.4,13.6-13.8C453.3,149.9,447,144.8,439.6,144.8z"/>
			<path fill="#8E8E93" d="M473.7,130.2l-3.1,3.5l-3.1-3.5l3.1-3.5L473.7,130.2z M468.9,176.4v-34.7l3.9-0.8v34.7L468.9,176.4z"/>
			<path fill="#8E8E93" d="M511.9,172c-2.6,2.6-7.7,4.3-12.2,4.3c-9.8,0-17.5-7.4-17.5-18.1c0-10.4,8.7-17.4,18.2-17.4
				c4.1,0,8.2,1.7,11.6,4l-2.4,3.2c-2-1.8-5.1-3.2-9.4-3.2c-8.1,0-14.1,5.9-14.1,14c0,7.3,5.7,13.7,13.2,13.7
				c3.7,0.1,7.2-1.2,10.1-3.4L511.9,172z"/>
			<path fill="#8E8E93" d="M522.3,142.9c3.1-1.3,6.5-2,9.9-2c5.3,0,10.6,2.8,10.6,8.6v26.1l-3.9,0.8v-4.3h-0.1
				c-1.3,2.5-4.3,4.3-8.3,4.3c-7,0-12.9-4.5-12.9-11.8c0-7.5,4.9-12.8,12.4-12.8c3.4,0,6.6,1.9,8.9,3.9V150c0-2.8-3.4-5.2-8-5.2
				c-3.2,0-6.9,1.7-9.9,2.7L522.3,142.9z M530.7,172.5c4.8,0,8.2-3.6,8.2-8.4c0-5-3.4-8.4-8.3-8.4c-5.2,0-9.1,3.5-9.1,8.9
				C521.4,169.5,526.2,172.5,530.7,172.5z"/>
			<path fill="#8E8E93" d="M558,175.6l-3.9,0.8v-48.9l3.9-0.8V175.6z"/>
		</g>
	</g>
	<g>
		<path fill="#8E8E93" d="M582.1,133.1c0,4.6-3.6,8.3-8.4,8.3c-4.7,0-8.4-3.6-8.4-8.3c0-4.5,3.7-8.2,8.4-8.2
			C578.5,124.9,582.1,128.5,582.1,133.1z M567.4,133.1c0,3.6,2.7,6.5,6.4,6.5c3.6,0,6.2-2.9,6.2-6.5c0-3.6-2.6-6.6-6.3-6.6
			C570.1,126.5,567.4,129.5,567.4,133.1z M572.4,137.4h-1.9v-8.2c0.7-0.1,1.8-0.2,3.1-0.2c1.5,0,2.2,0.2,2.8,0.6
			c0.4,0.3,0.8,1,0.8,1.8c0,0.9-0.7,1.6-1.7,1.9v0.1c0.8,0.3,1.2,0.9,1.5,2c0.2,1.2,0.4,1.7,0.6,2h-2c-0.2-0.3-0.4-1-0.6-2
			c-0.1-0.9-0.6-1.3-1.7-1.3h-0.9V137.4z M572.5,132.7h0.9c1,0,1.9-0.3,1.9-1.2c0-0.7-0.5-1.2-1.7-1.2c-0.5,0-0.8,0-1,0.1V132.7z"/>
	</g>
</g>
</svg>
